<svg width="32" height="32" viewBox="0 0 32 32" fill="none" xmlns="http://www.w3.org/2000/svg">
  <rect width="32" height="32" fill="#1A1412"/>
  <path d="M16 6C13.2386 6 11 8.23858 11 11V13H10C9.44772 13 9 13.4477 9 14V24C9 25.1046 9.89543 26 11 26H21C22.1046 26 23 25.1046 23 24V14C23 13.4477 22.5523 13 22 13H21V11C21 8.23858 18.7614 6 16 6Z" fill="#B87333"/>
  <rect x="13" y="11" width="6" height="2" fill="#8B6635"/>
  <path d="M21 13H11L12 15H20L21 13Z" fill="#C98D4D"/>
  <rect x="11" y="15" width="10" height="9" rx="1" fill="#B87333"/>
  <circle cx="16" cy="19.5" r="2" fill="#1A1412"/>
  <line x1="16" y1="24" x2="16" y2="26" stroke="#8B6635" stroke-width="2"/>
</svg>
